<svg class="icon" viewBox="0 0 1024 1024" xmlns="http://www.w3.org/2000/svg" width="64" height="64"><defs><style/></defs><path d="M573.338 722.398H311.706c-12.561 0-20.72-5.973-22.733-16.623-.376-2.15-.342-4.37-.342-6.554V465.237c0-14.78 7.715-22.63 22.187-22.63h262.485V227.26c0-9.558 4.37-17.135 11.81-20.07a18.842 18.842 0 0 1 22.563 5.256c3.72 4.062 7.714 7.782 11.537 11.742l143.53 148.753 184.389 190.976c10.24 10.581 10.274 21.777.17 32.256L683.452 869.58c-25.02 25.941-50.176 51.712-75.196 77.619-6.417 6.69-13.62 9.626-22.391 6.144-8.534-3.345-12.562-10.308-12.562-21.3V722.399zM415.334 209.442v78.78h-200.02c-40.756 0-70.793 31.266-70.793 73.694 0 146.773.238 293.546-.171 440.32-.103 38.843 28.33 66.799 54.647 71.919 5.803 1.126 11.81 1.604 17.75 1.638 63.76.102 127.522.068 191.317.068h7.168v78.336c-.922.205-1.98.615-3.038.615-67.789 0-135.612.717-203.435-.307-66.218-.99-124.893-53.18-137.557-120.764a159.676 159.676 0 0 1-2.662-29.048c-.137-148.377-.512-296.755.102-445.098.273-62.02 29.935-106.496 81.715-135.407a120.9 120.9 0 0 1 59.256-14.882c67.242-.171 134.485-.069 201.694-.069 1.126 0 2.252.137 4.027.205z" fill="#3CD0BE"/></svg>