<?xml version="1.0" standalone="no"?><!DOCTYPE svg PUBLIC "-//W3C//DTD SVG 1.1//EN" "http://www.w3.org/Graphics/SVG/1.1/DTD/svg11.dtd"><svg t="1619321847777" class="icon" viewBox="0 0 1024 1024" version="1.1" xmlns="http://www.w3.org/2000/svg" p-id="2406" xmlns:xlink="http://www.w3.org/1999/xlink" width="200" height="200"><defs><style type="text/css"></style></defs><path d="M481.211733 644.027733a729.088 729.088 0 0 1-0.341333-18.500266c0-24.2688 3.413333-45.1584 10.1376-62.839467 4.983467-13.312 12.970667-26.624 23.995733-40.209067 8.192-9.8304 22.766933-24.234667 43.8272-43.042133 21.060267-18.875733 34.816-33.928533 41.0624-45.192533 6.314667-11.229867 9.557333-23.893333 9.489067-36.7616 0-23.995733-9.216-45.192533-27.682133-63.3856-18.500267-18.1248-41.1648-27.306667-67.9936-27.306667-25.941333 0-47.547733 8.2944-64.9216 24.746667-17.373867 16.452267-28.740267 42.257067-34.133334 77.277866l-62.600533-7.509333c5.666133-46.967467 22.4256-82.909867 50.210133-107.861333 27.8528-24.951467 64.648533-37.444267 110.421334-37.444267 48.469333 0 87.1424 13.448533 115.950933 40.209067 28.8768 26.760533 43.3152 59.1872 43.3152 97.1776 0 21.981867-5.12 42.222933-15.2576 60.757333-10.103467 18.5344-29.934933 41.096533-59.4944 67.652267-19.8656 17.851733-32.768 30.993067-38.912 39.492266-6.109867 8.533333-10.5472 18.2272-13.482667 29.184-2.935467 10.9568-4.608 28.808533-5.12 53.589334h-58.4704zM477.525333 768v-70.417067h69.290667V768h-69.290667z" fill="#FEBE3B" p-id="2407"></path><path d="M512 1024c282.794667 0 512-229.205333 512-512S794.794667 0 512 0 0 229.205333 0 512s229.205333 512 512 512z m0-64C264.567467 960 64 759.432533 64 512S264.567467 64 512 64 960 264.567467 960 512 759.432533 960 512 960z" fill="#FEBE3B" p-id="2408"></path></svg>