<?xml version="1.0" standalone="no"?><!DOCTYPE svg PUBLIC "-//W3C//DTD SVG 1.1//EN" "http://www.w3.org/Graphics/SVG/1.1/DTD/svg11.dtd"><svg t="1611215663111" class="icon" viewBox="0 0 1063 1024" version="1.1" xmlns="http://www.w3.org/2000/svg" p-id="1073" xmlns:xlink="http://www.w3.org/1999/xlink" width="132.875" height="128"><defs><style type="text/css"></style></defs><path d="M0 900.923077c0 43.972923 101.336615 84.598154 265.846154 106.584615 164.509538 21.986462 367.182769 21.986462 531.692308 0s265.846154-62.621538 265.846153-106.584615C1063.384615 832.945231 825.334154 777.846154 531.692308 777.846154S0 832.945231 0 900.923077z" fill="#EAEAEA" p-id="1074"></path><path d="M66.914462 29.538462h63.094153c4.233846 0 7.837538 2.264615 7.837539 4.923076s-3.603692 4.923077-7.837539 4.923077H66.914462C62.680615 39.384615 59.076923 37.12 59.076923 34.461538s3.387077-4.923077 7.837539-4.923076z" fill="#D2D2D2" p-id="1075"></path><path d="M96 0c4.194462 0 7.394462 3.446154 7.394462 7.512615v60.49477a7.433846 7.433846 0 0 1-7.384616 7.512615A7.561846 7.561846 0 0 1 88.615385 68.007385V7.512615C88.615385 3.249231 92.012308 0 96 0z m425.796923 60.091077l28.750769 7.916308c3.997538 1.014154 6.596923 5.080615 5.602462 9.13723-1.004308 4.056615-4.992 6.695385-8.989539 5.681231-0.196923 0-0.393846 0-0.393846-0.196923l-28.760615-7.916308a7.453538 7.453538 0 0 1-5.198769-9.344c0.797538-4.056615 4.992-6.291692 8.989538-5.277538z m52.923077-42.633846l7.788308 29.243077c1.004308 4.056615-1.201231 8.32-5.188923 9.334154-3.997538 1.014154-8.192-1.220923-9.186462-5.277539l-7.788308-29.44a7.699692 7.699692 0 0 1 5.188923-9.344c4.194462-0.807385 8.192 1.624615 9.186462 5.484308z m62.72 25.383384l-21.169231 21.307077a7.453538 7.453538 0 0 1-10.594461 0.413539 7.758769 7.758769 0 0 1-0.393846-10.761846l0.393846-0.403693 20.972307-21.316923a7.453538 7.453538 0 0 1 10.584616-0.413538 7.758769 7.758769 0 0 1 0.393846 10.761846c0 0.196923 0 0.413538-0.196923 0.413538z m322.126769 23.748923c-24.763077 0-44.731077 20.499692-44.731077 45.469539 0 25.176615 20.174769 45.479385 44.731077 45.479385 24.772923 0 44.740923-20.499692 44.740923-45.479385 0-25.166769-19.968-45.469538-44.740923-45.469539z m0 75.716924c-16.571077 0-29.755077-13.587692-29.952-30.247385 0-16.836923 13.380923-30.247385 29.755077-30.444308 16.580923 0 29.755077 13.597538 29.961846 30.247385 0 16.846769-13.390769 30.454154-29.764923 30.454154z" fill="#F1F2F6" p-id="1076"></path><path d="M935.384615 325.848615L492.307692 265.846154v238.217846L935.384615 551.384615z" fill="#C2C2C2" p-id="1077"></path><path d="M137.846154 342.941538L492.307692 265.846154v267.52L137.846154 610.461538z" fill="#D1D1D1" p-id="1078"></path><path d="M551.384615 431.556923L935.384615 324.923077v503.827692L551.384615 935.384615z" fill="#DFDFDF" p-id="1079"></path><path d="M137.846154 344.615385l413.538461 89.048615V935.384615L137.846154 834.205538z" fill="#F4F4F4" p-id="1080"></path><path d="M551.384615 431.803077L137.905231 344.615385 49.230769 520.556308 477.558154 620.307692 551.384615 431.803077z" fill="#EBEBEB" p-id="1081"></path><path d="M551.384615 427.057231l387.771077-106.978462L1043.692308 498.589538 670.72 620.307692 551.384615 427.057231z" fill="#D0D0D0" p-id="1082"></path><path d="M761.255385 333.420308S777.846154 229.228308 864.600615 177.230769c0 0 7.591385 8.566154 22.587077 27.894154 0-0.196923-39.581538-6.380308-125.932307 128.295385zM554.436923 334.769231s1.585231-55.985231 43.382154-182.193231c0 0 7.561846 8.388923 22.488615 27.313231 0.196923 0-15.724308 13.459692-65.870769 154.88z m-145.083077-10.141539S362.387692 189.243077 247.168 128c0 0-19.298462 26.338462-40.398769 34.717538-0.196923 0.196923 132.332308 45.449846 202.584615 161.910154zM96 0c4.194462 0 7.394462 3.446154 7.394462 7.512615v60.49477a7.433846 7.433846 0 0 1-7.384616 7.512615A7.561846 7.561846 0 0 1 88.615385 68.007385V7.512615C88.615385 3.249231 92.012308 0 96 0z m425.796923 60.091077l28.750769 7.916308c3.997538 1.014154 6.596923 5.080615 5.602462 9.13723-1.004308 4.056615-4.992 6.695385-8.989539 5.681231-0.196923 0-0.393846 0-0.393846-0.196923l-28.760615-7.916308a7.453538 7.453538 0 0 1-5.198769-9.344c0.797538-4.056615 4.992-6.291692 8.989538-5.277538z m52.923077-42.633846l7.788308 29.243077c1.004308 4.056615-1.201231 8.32-5.188923 9.334154-3.997538 1.014154-8.192-1.220923-9.186462-5.277539l-7.788308-29.44a7.699692 7.699692 0 0 1 5.188923-9.344c4.194462-0.807385 8.192 1.624615 9.186462 5.484308z m62.72 25.383384l-21.169231 21.307077a7.453538 7.453538 0 0 1-10.594461 0.413539 7.758769 7.758769 0 0 1-0.393846-10.761846l0.393846-0.403693 20.972307-21.316923a7.453538 7.453538 0 0 1 10.584616-0.413538 7.758769 7.758769 0 0 1 0.393846 10.761846c0 0.196923 0 0.413538-0.196923 0.413538z m322.126769 23.748923c-24.763077 0-44.731077 20.499692-44.731077 45.469539 0 25.176615 20.174769 45.479385 44.731077 45.479385 24.772923 0 44.740923-20.499692 44.740923-45.479385 0-25.166769-19.968-45.469538-44.740923-45.469539z m0 75.716924c-16.571077 0-29.755077-13.587692-29.952-30.247385 0-16.836923 13.380923-30.247385 29.755077-30.444308 16.580923 0 29.755077 13.597538 29.961846 30.247385 0 16.846769-13.390769 30.454154-29.764923 30.454154z" fill="#D2D2D2" p-id="1083"></path></svg>